<svg width="110" height="110" viewBox="0 0 110 110" fill="none" xmlns="http://www.w3.org/2000/svg">
<path d="M110 55C110 65.5212 106.982 75.8217 101.305 84.6796C95.6271 93.5374 87.528 100.581 77.9681 104.975C68.4082 109.368 57.7887 110.928 47.3692 109.468C36.9497 108.008 27.1676 103.591 19.1831 96.7391C11.1986 89.8875 5.34689 80.8895 2.32205 70.8124C-0.702796 60.7354 -0.773814 50.0022 2.11741 39.886C5.00864 29.7698 10.7408 20.6952 18.6339 13.7386C26.527 6.7819 36.2499 2.23516 46.6491 0.637672L48.5183 12.8059C40.4468 14.0458 32.9003 17.5749 26.774 22.9744C20.6476 28.3739 16.1985 35.4173 13.9545 43.2691C11.7104 51.1209 11.7655 59.4516 14.1133 67.273C16.4611 75.0945 21.003 82.0784 27.2002 87.3964C33.3975 92.7143 40.99 96.1432 49.0773 97.2761C57.1645 98.4091 65.407 97.1987 72.827 93.7885C80.2471 90.3783 86.5333 84.9114 90.94 78.0362C95.3467 71.161 97.689 63.1662 97.689 55H110Z" fill="#2196F3"/>
</svg>
